<svg xmlns="http://www.w3.org/2000/svg" viewBox="0 0 285.5 251.022"><defs><style>.a{fill:none;stroke:#020202;}.a,.b{stroke-width:10px;}.b{fill:#030303;stroke:#fff;}</style></defs><g transform="translate(-1167.5 -475.433)"><g transform="translate(1167.5 480.433)"><line class="a" x2="285.5"/><line class="a" x2="285.5" transform="translate(0 60.255)"/><line class="a" x2="285.5" transform="translate(0 120.511)"/><line class="a" x2="285.5" transform="translate(0 180.766)"/><line class="a" x2="285.5" transform="translate(0 241.022)"/></g><path class="b" d="M0,151.011c0-11.412,12.378-20.663,27.645-20.663A34.6,34.6,0,0,1,42.533,133.6V55.753c-.32.114-.49.179-.49.179l.49-3.035V13.6a7.262,7.262,0,0,1,11.184-6.11C64.884,1.909,94.173-10.272,90.536,17.685c-4.481,34.448,49.956,9.69,49.956,9.69l-7.468,46.2s-41.044,10.59-49.956-9.69C78.257,52.942,66.685,51.5,57.054,52.482v95.906a7.235,7.235,0,0,1-1.933,4.932c-1.537,10.325-13.252,18.354-27.476,18.354C12.378,171.674,0,162.423,0,151.011Z" transform="matrix(0.996, -0.087, 0.087, 0.996, 1233.172, 519.088)"/></g></svg>