<svg xmlns="http://www.w3.org/2000/svg" viewBox="0 0 325.957 258.027"><defs><style>.a,.d,.f{fill:none;}.a{stroke:#fff;stroke-width:8px;}.b{fill:#020202;}.b,.c{stroke:#707070;}.c{fill:#fff;}.d{stroke:#030303;stroke-width:3px;}.e{stroke:none;}</style></defs><g transform="translate(-388 -614.223)"><line class="a" y1="28.131" x2="19.476" transform="translate(575.903 616.5)"/><g transform="translate(388 644.992)"><g class="b"><rect class="e" width="325.957" height="227.258"/><rect class="f" x="0.5" y="0.5" width="324.957" height="226.258"/></g><g class="c" transform="translate(10.425 10.425)"><rect class="e" width="303.023" height="163.32"/><rect class="f" x="0.5" y="0.5" width="302.023" height="162.32"/></g></g><line class="d" y2="179.607" transform="translate(500.165 645.353)"/><line class="d" y2="179.607" transform="translate(448.23 645.353)"/><line class="d" y2="179.607" transform="translate(552.099 645.353)"/><line class="d" y2="179.607" transform="translate(604.034 652.566)"/><line class="d" y2="179.607" transform="translate(655.969 652.566)"/><g class="b" transform="translate(436.328 652.926)"><rect class="e" width="23.803" height="136.329"/><rect class="f" x="0.5" y="0.5" width="22.803" height="135.329"/></g><g class="b" transform="translate(488.263 652.926)"><rect class="e" width="23.803" height="136.329"/><rect class="f" x="0.5" y="0.5" width="22.803" height="135.329"/></g><g class="b" transform="translate(592.132 652.926)"><rect class="e" width="23.803" height="136.329"/><rect class="f" x="0.5" y="0.5" width="22.803" height="135.329"/></g><g class="b" transform="translate(644.067 652.926)"><rect class="e" width="23.803" height="136.329"/><rect class="f" x="0.5" y="0.5" width="22.803" height="135.329"/></g></g></svg>