<svg xmlns="http://www.w3.org/2000/svg" viewBox="0 0 86.167 114.797" class="singlemusicnote">
  <defs>
    <style>
      .cls-1 {
        stroke: #020202;
      }
    </style>
  </defs>
  <path id="_1musicnote" data-name="1musicnote" class="cls-1 _1musicnote" d="M100.1,187.445c2.838,9.324-5.223,11.582-5.223,11.582Zm-49.9-2.219c0-7.345,8.88-13.3,19.835-13.3A27.24,27.24,0,0,1,80.7,174.013V90.084a4.584,4.584,0,1,1,9.167,0v5.9c14.464-.2,43.916,2.661,22.079,31.81L89.871,104.087v82.592A4.569,4.569,0,0,1,88.7,189.74c-2.757,5.125-10.073,8.787-18.665,8.787C59.081,198.527,50.2,192.572,50.2,185.226Zm3.522-16.138L40.026,184.9C41.107,168.748,53.722,169.088,53.722,169.088Zm-9.7-4.54L34.8,175.36C32.966,164.857,44.022,164.549,44.022,164.549Z" transform="translate(-34.083 -85)"/>
</svg>
