<svg xmlns="http://www.w3.org/2000/svg" viewBox="0 0 133.723 133.723"><defs><style>.a,.b,.c{fill:#fff;}.a{stroke:#020202;}.a,.c,.d{stroke-width:5px;}.c{stroke:#080808;}.d{fill:#030303;stroke:#050505;}.e,.g{stroke:none;}.f{fill:none;}.g{fill:#020202;}</style></defs><g transform="translate(-316 -221)"><g transform="translate(-48 -122)"><g class="a" transform="translate(364 343)"><rect class="e" width="133.723" height="133.723" rx="28"/><rect class="f" x="2.5" y="2.5" width="128.723" height="128.723" rx="25.5"/></g><g class="b" transform="translate(383.103 362.103)"><path class="e" d="M 49.49472427368164 93.01613616943359 L 46.02141189575195 93.01613616943359 C 40.15659713745117 93.01613616943359 34.46765518188477 91.82435607910156 29.11259651184082 89.47388458251953 C 23.93265342712402 87.20027160644531 19.2785530090332 83.94328308105469 15.27955341339111 79.79338073730469 C 11.27431106567383 75.63700866699219 8.129239082336426 70.79573822021484 5.931682586669922 65.40406799316406 C 3.654582262039185 59.81725311279297 2.499996662139893 53.88028335571289 2.499996662139893 47.7580680847168 C 2.499996662139893 41.6358528137207 3.654582262039185 35.69888305664062 5.931682586669922 30.11206817626953 C 8.129239082336426 24.72038269042969 11.27431106567383 19.87912559509277 15.27955341339111 15.72273921966553 C 19.2785530090332 11.57285404205322 23.93265342712402 8.315868377685547 29.11258316040039 6.042253971099854 C 34.46765518188477 3.691782474517822 40.15659713745117 2.499996662139893 46.02141189575195 2.499996662139893 C 51.9287109375 2.499996662139893 57.8162956237793 3.698625326156616 63.52062606811523 6.062596797943115 C 66.27859497070312 7.205554008483887 68.96088409423828 8.616096496582031 71.49295043945312 10.25503921508789 C 74.01786804199219 11.88935375213623 76.40501403808594 13.7582540512085 78.58808135986328 15.80979633331299 C 80.78653717041016 17.87581062316895 82.78881072998047 20.13733863830566 84.53928375244141 22.53158187866211 C 86.31862640380859 24.96529579162598 87.84957122802734 27.55265426635742 89.08956909179688 30.22178268432617 C 91.69505310058594 35.83011245727539 93.01613616943359 41.73016738891602 93.01613616943359 47.7580680847168 C 93.01613616943359 53.88028335571289 91.86155700683594 59.81725311279297 89.58445739746094 65.40406799316406 C 87.38689422607422 70.79573822021484 84.24182891845703 75.63700866699219 80.23657989501953 79.79338073730469 C 76.23757934570312 83.94328308105469 71.58348083496094 87.20027160644531 66.40354156494141 89.47388458251953 C 61.04848098754883 91.82435607910156 55.35953903198242 93.01613616943359 49.49472427368164 93.01613616943359 Z"/><path class="g" d="M 46.02141952514648 5 C 40.50463485717773 5 35.15375137329102 6.120864868164062 30.11737060546875 8.331451416015625 C 25.23770141601562 10.4732666015625 20.85120391845703 13.543701171875 17.07975006103516 17.45748138427734 C 13.29579925537109 21.38421630859375 10.32395172119141 25.95930480957031 8.24676513671875 31.05564880371094 C 6.092369079589844 36.34143447875977 5 41.96093368530273 5 47.7580680847168 C 5 53.55520248413086 6.092369079589844 59.17470169067383 8.24676513671875 64.46048736572266 C 10.32395172119141 69.55683898925781 13.29579925537109 74.13191986083984 17.07975006103516 78.05865478515625 C 20.85120391845703 81.97243499755859 25.23770141601562 85.04286956787109 30.11737060546875 87.18468475341797 C 35.15375137329102 89.39527130126953 40.50463485717773 90.51613616943359 46.02141952514648 90.51613616943359 L 49.49471664428711 90.51613616943359 C 55.01150131225586 90.51613616943359 60.36238479614258 89.39527130126953 65.39875030517578 87.18468475341797 C 70.27843475341797 85.04286956787109 74.6649169921875 81.97243499755859 78.43638610839844 78.05865478515625 C 82.2203369140625 74.13191986083984 85.19216918945312 69.55683898925781 87.26937103271484 64.46046447753906 C 89.42376708984375 59.17470169067383 90.51613616943359 53.55520248413086 90.51613616943359 47.7580680847168 C 90.51613616943359 42.09670257568359 89.27335357666016 36.55101776123047 86.82230377197266 31.27510070800781 C 85.65113830566406 28.75418853759766 84.20401763916016 26.30886840820312 82.52113342285156 24.00708770751953 C 80.86154937744141 21.73716735839844 78.96226501464844 19.59213256835938 76.87605285644531 17.63159942626953 C 68.33384704589844 9.604034423828125 57.08778381347656 5 46.02141952514648 5 M 46.02141952514648 0 C 71.43833923339844 0 95.51613616943359 21.38201904296875 95.51613616943359 47.7580680847168 C 95.51613616943359 74.13411712646484 74.91163635253906 95.51613616943359 49.49471664428711 95.51613616943359 L 46.02141952514648 95.51613616943359 C 20.60448455810547 95.51613616943359 0 74.13411712646484 0 47.7580680847168 C 0 21.38201904296875 20.60448455810547 0 46.02141952514648 0 Z"/></g><g class="c" transform="translate(414.942 393.942)"><circle class="e" cx="15.919" cy="15.919" r="15.919"/><circle class="f" cx="15.919" cy="15.919" r="13.419"/></g><g class="d" transform="translate(376.099 356.372)"><circle class="e" cx="6.368" cy="6.368" r="6.368"/><circle class="f" cx="6.368" cy="6.368" r="3.868"/></g><g class="d" transform="translate(376.099 451.252)"><circle class="e" cx="6.368" cy="6.368" r="6.368"/><circle class="f" cx="6.368" cy="6.368" r="3.868"/></g><g class="d" transform="translate(472.252 451.252)"><circle class="e" cx="6.368" cy="6.368" r="6.368"/><circle class="f" cx="6.368" cy="6.368" r="3.868"/></g><g class="d" transform="translate(472.252 356.372)"><circle class="e" cx="6.368" cy="6.368" r="6.368"/><circle class="f" cx="6.368" cy="6.368" r="3.868"/></g></g></g></svg>