<svg xmlns="http://www.w3.org/2000/svg" viewBox="0 0 244.633 173.96"><defs><style>.a{fill:#030303;stroke:#707070;}.b,.c{stroke:none;}.c{fill:#707070;}</style></defs><g transform="translate(-966.207 -689.29)"><path class="a" d="M763.707,733.439h57.53l57.808-57.94V847.128l-57.808-51.984h-57.53Z" transform="translate(203 15)"/><g transform="translate(1124 695.163) rotate(41)"><path class="b" d="M 63.08769989013672 114.5637741088867 L 51.97605133056641 114.5637741088867 L 51.97605133056641 57.53142166137695 L 51.97605133056641 57.03142166137695 L 51.47605133056641 57.03142166137695 L 0.5000063180923462 57.03142166137695 L 0.5000063180923462 45.91979217529297 L 51.47605133056641 45.91979217529297 L 51.97605133056641 45.91979217529297 L 51.97605133056641 45.41979217529297 L 51.97605133056641 0.5000063180923462 L 63.08769989013672 0.5000063180923462 L 63.08769989013672 45.41979217529297 L 63.08769989013672 45.91979217529297 L 63.58769989013672 45.91979217529297 L 114.5637741088867 45.91979217529297 L 114.5637741088867 57.03142166137695 L 63.58769989013672 57.03142166137695 L 63.08769989013672 57.03142166137695 L 63.08769989013672 57.53142166137695 L 63.08769989013672 114.5637741088867 Z"/><path class="c" d="M 62.58769989013672 114.0637741088867 L 62.58769989013672 57.53142166137695 L 62.58769989013672 56.53142166137695 L 63.58769989013672 56.53142166137695 L 114.0637741088867 56.53142166137695 L 114.0637741088867 46.41979217529297 L 63.58769989013672 46.41979217529297 L 62.58769989013672 46.41979217529297 L 62.58769989013672 45.41979217529297 L 62.58769989013672 1.000006318092346 L 52.47605133056641 1.000006318092346 L 52.47605133056641 45.41979217529297 L 52.47605133056641 46.41979217529297 L 51.47605133056641 46.41979217529297 L 1.000006318092346 46.41979217529297 L 1.000006318092346 56.53142166137695 L 51.47605133056641 56.53142166137695 L 52.47605133056641 56.53142166137695 L 52.47605133056641 57.53142166137695 L 52.47605133056641 114.0637741088867 L 62.58769989013672 114.0637741088867 M 63.58769989013672 115.0637741088867 L 51.47605133056641 115.0637741088867 L 51.47605133056641 57.53142166137695 L 6.316668986983132e-06 57.53142166137695 L 6.316668986983132e-06 45.41979217529297 L 51.47605133056641 45.41979217529297 L 51.47605133056641 6.316668986983132e-06 L 63.58769989013672 6.316668986983132e-06 L 63.58769989013672 45.41979217529297 L 115.0637741088867 45.41979217529297 L 115.0637741088867 57.53142166137695 L 63.58769989013672 57.53142166137695 L 63.58769989013672 115.0637741088867 Z"/></g></g></svg>