<svg xmlns="http://www.w3.org/2000/svg" viewBox="0 0 342.44 228.904">
  <defs>
    <style>
      .cls-1 {
        fill: #020202;
      }

      .cls-2, .cls-3 {
        stroke: none;
      }

      .cls-3 {
        fill: #707070;
      }
    </style>
  </defs>
  <g id="adjust" class="cls-1" transform="translate(139 -170)">
    <path class="cls-2" d="M 165.4407348632812 398.404296875 L -100.9997711181641 398.404296875 C -106.0625839233398 398.404296875 -110.9735870361328 397.4129028320312 -115.5964050292969 395.4576110839844 C -120.0619049072266 393.5688781738281 -124.0723571777344 390.8650207519531 -127.5163116455078 387.4210815429688 C -130.9603118896484 383.9770812988281 -133.6642303466797 379.9666137695312 -135.5529022216797 375.5011596679688 C -137.5081787109375 370.8782043457031 -138.4995880126953 365.9671630859375 -138.4995880126953 360.904541015625 L -138.4995880126953 207.9999389648438 C -138.4995880126953 202.937255859375 -137.5081787109375 198.0262145996094 -135.5529022216797 193.4032592773438 C -133.6641845703125 188.9377593994141 -130.9602661132812 184.9273071289062 -127.5163116455078 181.4833984375 C -124.0723114013672 178.0393981933594 -120.0618591308594 175.3354797363281 -115.5964050292969 173.4468078613281 C -110.9734954833984 171.4915313720703 -106.0624465942383 170.5001220703125 -100.9997711181641 170.5001220703125 L 165.4407348632812 170.5001220703125 C 170.5033721923828 170.5001220703125 175.4144134521484 171.4915313720703 180.0373687744141 173.4468078613281 C 184.5028228759766 175.3354797363281 188.5132293701172 178.0393981933594 191.9572296142578 181.4833984375 C 195.4011840820312 184.9273071289062 198.1051025390625 188.9377593994141 199.9938201904297 193.4032592773438 C 201.9490966796875 198.0262145996094 202.9405059814453 202.937255859375 202.9405059814453 207.9999389648438 L 202.9405059814453 360.904541015625 C 202.9405059814453 365.9671630859375 201.9490966796875 370.8782043457031 199.9938201904297 375.5011596679688 C 198.1051483154297 379.9666137695312 195.4012298583984 383.9770812988281 191.9572296142578 387.4210815429688 C 188.5132751464844 390.8650207519531 184.5028686523438 393.5688781738281 180.0373687744141 395.4576110839844 C 175.4145050048828 397.4129028320312 170.5035095214844 398.404296875 165.4407348632812 398.404296875 Z M 124.19677734375 342.6359252929688 L 124.19677734375 386.0865783691406 L 124.19677734375 386.5865783691406 L 124.69677734375 386.5865783691406 L 138.4316864013672 386.5865783691406 L 138.9316864013672 386.5865783691406 L 138.9316864013672 386.0865783691406 L 138.9316864013672 342.6359252929688 L 150.334228515625 342.6359252929688 L 150.834228515625 342.6359252929688 L 150.834228515625 342.1359252929688 L 150.834228515625 319.2462158203125 L 150.834228515625 318.7462158203125 L 150.334228515625 318.7462158203125 L 138.9316864013672 318.7462158203125 L 138.9316864013672 182.8188018798828 L 138.9316864013672 182.3188018798828 L 138.4316864013672 182.3188018798828 L 124.69677734375 182.3188018798828 L 124.19677734375 182.3188018798828 L 124.19677734375 182.8188018798828 L 124.19677734375 318.7462158203125 L 113.7096405029297 318.7462158203125 L 113.2096405029297 318.7462158203125 L 113.2096405029297 319.2462158203125 L 113.2096405029297 342.1359252929688 L 113.2096405029297 342.6359252929688 L 113.7096405029297 342.6359252929688 L 124.19677734375 342.6359252929688 Z M 59.18800354003906 284.9522094726562 L 59.18800354003906 386.0865783691406 L 59.18800354003906 386.5865783691406 L 59.68800354003906 386.5865783691406 L 73.42291259765625 386.5865783691406 L 73.92291259765625 386.5865783691406 L 73.92291259765625 386.0865783691406 L 73.92291259765625 284.9522094726562 L 85.32541656494141 284.9522094726562 L 85.82541656494141 284.9522094726562 L 85.82541656494141 284.4522094726562 L 85.82541656494141 261.5624694824219 L 85.82541656494141 261.0624694824219 L 85.32541656494141 261.0624694824219 L 73.92291259765625 261.0624694824219 L 73.92291259765625 182.8188018798828 L 73.92291259765625 182.3188018798828 L 73.42291259765625 182.3188018798828 L 59.68800354003906 182.3188018798828 L 59.18800354003906 182.3188018798828 L 59.18800354003906 182.8188018798828 L 59.18800354003906 261.0624694824219 L 48.70077896118164 261.0624694824219 L 48.20077896118164 261.0624694824219 L 48.20077896118164 261.5624694824219 L 48.20077896118164 284.4522094726562 L 48.20077896118164 284.9522094726562 L 48.70077896118164 284.9522094726562 L 59.18800354003906 284.9522094726562 Z M -14.06122303009033 365.5265808105469 L -14.06122303009033 386.0865783691406 L -14.06122303009033 386.5865783691406 L -13.56122303009033 386.5865783691406 L 0.1737317144870758 386.5865783691406 L 0.6737316846847534 386.5865783691406 L 0.6737316846847534 386.0865783691406 L 0.6737316846847534 365.5265808105469 L 12.07623195648193 365.5265808105469 L 12.57623195648193 365.5265808105469 L 12.57623195648193 365.0265808105469 L 12.57623195648193 342.1359252929688 L 12.57623195648193 341.6359252929688 L 12.07623195648193 341.6359252929688 L 0.6737316846847534 341.6359252929688 L 0.6737316846847534 182.8188018798828 L 0.6737316846847534 182.3188018798828 L 0.1737317144870758 182.3188018798828 L -13.56122303009033 182.3188018798828 L -14.06122303009033 182.3188018798828 L -14.06122303009033 182.8188018798828 L -14.06122303009033 341.6359252929688 L -24.54840469360352 341.6359252929688 L -25.04840469360352 341.6359252929688 L -25.04840469360352 342.1359252929688 L -25.04840469360352 365.0265808105469 L -25.04840469360352 365.5265808105469 L -24.54840469360352 365.5265808105469 L -14.06122303009033 365.5265808105469 Z M -86.39508819580078 240.0872039794922 L -86.39508819580078 386.0865783691406 L -86.39508819580078 386.5865783691406 L -85.89508819580078 386.5865783691406 L -72.16022491455078 386.5865783691406 L -71.66022491455078 386.5865783691406 L -71.66022491455078 386.0865783691406 L -71.66022491455078 240.0872039794922 L -61.17299652099609 240.0872039794922 L -60.67299652099609 240.0872039794922 L -60.67299652099609 239.5872039794922 L -60.67299652099609 216.6966247558594 L -60.67299652099609 216.1966247558594 L -61.17299652099609 216.1966247558594 L -71.66022491455078 216.1966247558594 L -71.66022491455078 182.8188018798828 L -71.66022491455078 182.3188018798828 L -72.16022491455078 182.3188018798828 L -85.89508819580078 182.3188018798828 L -86.39508819580078 182.3188018798828 L -86.39508819580078 182.8188018798828 L -86.39508819580078 216.1966247558594 L -97.79758453369141 216.1966247558594 L -98.29758453369141 216.1966247558594 L -98.29758453369141 216.6966247558594 L -98.29758453369141 239.5872039794922 L -98.29758453369141 240.0872039794922 L -97.79758453369141 240.0872039794922 L -86.39508819580078 240.0872039794922 Z"/>
    <path class="cls-3" d="M 165.4407348632812 397.904296875 C 170.4361877441406 397.904296875 175.2816925048828 396.9261779785156 179.8425903320312 394.9971313476562 C 184.2485046386719 393.1336059570312 188.2055053710938 390.4656982421875 191.6036834716797 387.0675354003906 C 195.0019073486328 383.6692504882812 197.6698150634766 379.7122497558594 199.5333251953125 375.306396484375 C 201.4623718261719 370.7453918457031 202.4405059814453 365.89990234375 202.4405059814453 360.904541015625 L 202.4405059814453 207.9999389648438 C 202.4405059814453 203.0045318603516 201.4623718261719 198.1590270996094 199.5333251953125 193.5980224609375 C 197.6697845458984 189.1921234130859 195.0018615722656 185.2351226806641 191.6036834716797 181.8369293212891 C 188.2054138183594 178.4387054443359 184.2484130859375 175.7707977294922 179.8425903320312 173.9073028564453 C 175.2816009521484 171.9782562255859 170.4360961914062 171.0001220703125 165.4407348632812 171.0001220703125 L -100.9997711181641 171.0001220703125 C -105.9951782226562 171.0001220703125 -110.8406753540039 171.9782562255859 -115.4016342163086 173.9073028564453 C -119.8074951171875 175.7707977294922 -123.7644958496094 178.4387054443359 -127.1627655029297 181.8369293212891 C -130.5609436035156 185.2351226806641 -133.2288665771484 189.1921234130859 -135.0924072265625 193.5980224609375 C -137.0214538574219 198.1590270996094 -137.9995880126953 203.0045318603516 -137.9995880126953 207.9999389648438 L -137.9995880126953 360.904541015625 C -137.9995880126953 365.89990234375 -137.0214538574219 370.7453918457031 -135.0924072265625 375.306396484375 C -133.2288970947266 379.7122497558594 -130.5609893798828 383.6692504882812 -127.1627655029297 387.0675354003906 C -123.7645416259766 390.4656982421875 -119.8075408935547 393.1336059570312 -115.4016342163086 394.9971313476562 C -110.8407669067383 396.9261779785156 -105.9952697753906 397.904296875 -100.9997711181641 397.904296875 L 165.4407348632812 397.904296875 M 123.69677734375 343.1359252929688 L 113.7096405029297 343.1359252929688 L 112.7096405029297 343.1359252929688 L 112.7096405029297 342.1359252929688 L 112.7096405029297 319.2462158203125 L 112.7096405029297 318.2462158203125 L 113.7096405029297 318.2462158203125 L 123.69677734375 318.2462158203125 L 123.69677734375 182.8188018798828 L 123.69677734375 181.8188018798828 L 124.69677734375 181.8188018798828 L 138.4316864013672 181.8188018798828 L 139.4316864013672 181.8188018798828 L 139.4316864013672 182.8188018798828 L 139.4316864013672 318.2462158203125 L 150.334228515625 318.2462158203125 L 151.334228515625 318.2462158203125 L 151.334228515625 319.2462158203125 L 151.334228515625 342.1359252929688 L 151.334228515625 343.1359252929688 L 150.334228515625 343.1359252929688 L 139.4316864013672 343.1359252929688 L 139.4316864013672 386.0865783691406 L 139.4316864013672 387.0865783691406 L 138.4316864013672 387.0865783691406 L 124.69677734375 387.0865783691406 L 123.69677734375 387.0865783691406 L 123.69677734375 386.0865783691406 L 123.69677734375 343.1359252929688 M 58.68800354003906 285.4522094726562 L 48.70077896118164 285.4522094726562 L 47.70077896118164 285.4522094726562 L 47.70077896118164 284.4522094726562 L 47.70077896118164 261.5624694824219 L 47.70077896118164 260.5624694824219 L 48.70077896118164 260.5624694824219 L 58.68800354003906 260.5624694824219 L 58.68800354003906 182.8188018798828 L 58.68800354003906 181.8188018798828 L 59.68800354003906 181.8188018798828 L 73.42291259765625 181.8188018798828 L 74.42291259765625 181.8188018798828 L 74.42291259765625 182.8188018798828 L 74.42291259765625 260.5624694824219 L 85.32541656494141 260.5624694824219 L 86.32541656494141 260.5624694824219 L 86.32541656494141 261.5624694824219 L 86.32541656494141 284.4522094726562 L 86.32541656494141 285.4522094726562 L 85.32541656494141 285.4522094726562 L 74.42291259765625 285.4522094726562 L 74.42291259765625 386.0865783691406 L 74.42291259765625 387.0865783691406 L 73.42291259765625 387.0865783691406 L 59.68800354003906 387.0865783691406 L 58.68800354003906 387.0865783691406 L 58.68800354003906 386.0865783691406 L 58.68800354003906 285.4522094726562 M -14.56122303009033 366.0265808105469 L -24.54840469360352 366.0265808105469 L -25.54840469360352 366.0265808105469 L -25.54840469360352 365.0265808105469 L -25.54840469360352 342.1359252929688 L -25.54840469360352 341.1359252929688 L -24.54840469360352 341.1359252929688 L -14.56122303009033 341.1359252929688 L -14.56122303009033 182.8188018798828 L -14.56122303009033 181.8188018798828 L -13.56122303009033 181.8188018798828 L 0.1737317144870758 181.8188018798828 L 1.173731684684753 181.8188018798828 L 1.173731684684753 182.8188018798828 L 1.173731684684753 341.1359252929688 L 12.07623195648193 341.1359252929688 L 13.07623195648193 341.1359252929688 L 13.07623195648193 342.1359252929688 L 13.07623195648193 365.0265808105469 L 13.07623195648193 366.0265808105469 L 12.07623195648193 366.0265808105469 L 1.173731684684753 366.0265808105469 L 1.173731684684753 386.0865783691406 L 1.173731684684753 387.0865783691406 L 0.1737317144870758 387.0865783691406 L -13.56122303009033 387.0865783691406 L -14.56122303009033 387.0865783691406 L -14.56122303009033 386.0865783691406 L -14.56122303009033 366.0265808105469 M -86.89508819580078 240.5872039794922 L -97.79758453369141 240.5872039794922 L -98.79758453369141 240.5872039794922 L -98.79758453369141 239.5872039794922 L -98.79758453369141 216.6966247558594 L -98.79758453369141 215.6966247558594 L -97.79758453369141 215.6966247558594 L -86.89508819580078 215.6966247558594 L -86.89508819580078 182.8188018798828 L -86.89508819580078 181.8188018798828 L -85.89508819580078 181.8188018798828 L -72.16022491455078 181.8188018798828 L -71.16022491455078 181.8188018798828 L -71.16022491455078 182.8188018798828 L -71.16022491455078 215.6966247558594 L -61.17299652099609 215.6966247558594 L -60.17299652099609 215.6966247558594 L -60.17299652099609 216.6966247558594 L -60.17299652099609 239.5872039794922 L -60.17299652099609 240.5872039794922 L -61.17299652099609 240.5872039794922 L -71.16022491455078 240.5872039794922 L -71.16022491455078 386.0865783691406 L -71.16022491455078 387.0865783691406 L -72.16022491455078 387.0865783691406 L -85.89508819580078 387.0865783691406 L -86.89508819580078 387.0865783691406 L -86.89508819580078 386.0865783691406 L -86.89508819580078 240.5872039794922 M 165.4407348632812 398.904296875 L -100.9997711181641 398.904296875 C -106.1298141479492 398.904296875 -111.1063613891602 397.8996276855469 -115.7911758422852 395.9181213378906 C -120.3162689208984 394.0042114257812 -124.3801345825195 391.2643432617188 -127.8698577880859 387.7746276855469 C -131.3596343994141 384.2848510742188 -134.0995025634766 380.2210388183594 -136.0133972167969 375.6959228515625 C -137.9948577880859 371.0110778808594 -138.9995880126953 366.0345153808594 -138.9995880126953 360.904541015625 L -138.9995880126953 207.9999389648438 C -138.9995880126953 202.8698883056641 -137.9948577880859 197.8933410644531 -136.0133972167969 193.2084808349609 C -134.0995025634766 188.6834411621094 -131.3596343994141 184.6195678710938 -127.8698577880859 181.1298522949219 C -124.3801345825195 177.6401214599609 -120.3162689208984 174.9002075195312 -115.7911758422852 172.9862976074219 C -111.1063613891602 171.0048522949219 -106.1298141479492 170.0001220703125 -100.9997711181641 170.0001220703125 L 165.4407348632812 170.0001220703125 C 170.5707702636719 170.0001220703125 175.5472717285156 171.0048522949219 180.2321472167969 172.9862976074219 C 184.7571868896484 174.9002075195312 188.821044921875 177.6401214599609 192.3107757568359 181.1298522949219 C 195.8005523681641 184.6195678710938 198.5404205322266 188.6834411621094 200.4543151855469 193.2084808349609 C 202.4357757568359 197.8933410644531 203.4405059814453 202.8698883056641 203.4405059814453 207.9999389648438 L 203.4405059814453 360.904541015625 C 203.4405059814453 366.0345153808594 202.4357757568359 371.0110778808594 200.4543151855469 375.6959228515625 C 198.5404205322266 380.2210388183594 195.8005523681641 384.2848510742188 192.3107757568359 387.7746276855469 C 188.821044921875 391.2643432617188 184.7571868896484 394.0042114257812 180.2321472167969 395.9181213378906 C 175.5472717285156 397.8996276855469 170.5707702636719 398.904296875 165.4407348632812 398.904296875 Z M 113.7096405029297 319.2462158203125 L 113.7096405029297 342.1359252929688 L 124.69677734375 342.1359252929688 L 124.69677734375 386.0865783691406 L 138.4316864013672 386.0865783691406 L 138.4316864013672 342.1359252929688 L 150.334228515625 342.1359252929688 L 150.334228515625 319.2462158203125 L 138.4316864013672 319.2462158203125 L 138.4316864013672 182.8188018798828 L 124.69677734375 182.8188018798828 L 124.69677734375 319.2462158203125 L 113.7096405029297 319.2462158203125 Z M 48.70077896118164 261.5624694824219 L 48.70077896118164 284.4522094726562 L 59.68800354003906 284.4522094726562 L 59.68800354003906 386.0865783691406 L 73.42291259765625 386.0865783691406 L 73.42291259765625 284.4522094726562 L 85.32541656494141 284.4522094726562 L 85.32541656494141 261.5624694824219 L 73.42291259765625 261.5624694824219 L 73.42291259765625 182.8188018798828 L 59.68800354003906 182.8188018798828 L 59.68800354003906 261.5624694824219 L 48.70077896118164 261.5624694824219 Z M -24.54840469360352 342.1359252929688 L -24.54840469360352 365.0265808105469 L -13.56122303009033 365.0265808105469 L -13.56122303009033 386.0865783691406 L 0.1737317144870758 386.0865783691406 L 0.1737317144870758 365.0265808105469 L 12.07623195648193 365.0265808105469 L 12.07623195648193 342.1359252929688 L 0.1737317144870758 342.1359252929688 L 0.1737317144870758 182.8188018798828 L -13.56122303009033 182.8188018798828 L -13.56122303009033 342.1359252929688 L -24.54840469360352 342.1359252929688 Z M -97.79758453369141 216.6966247558594 L -97.79758453369141 239.5872039794922 L -85.89508819580078 239.5872039794922 L -85.89508819580078 386.0865783691406 L -72.16022491455078 386.0865783691406 L -72.16022491455078 239.5872039794922 L -61.17299652099609 239.5872039794922 L -61.17299652099609 216.6966247558594 L -72.16022491455078 216.6966247558594 L -72.16022491455078 182.8188018798828 L -85.89508819580078 182.8188018798828 L -85.89508819580078 216.6966247558594 L -97.79758453369141 216.6966247558594 Z"/>
  </g>
</svg>
