<svg xmlns="http://www.w3.org/2000/svg" viewBox="0 0 78.269 130.984">
  <defs>
    <style>
      .cls-1 {
        fill: #030303;
      }

      .cls-2, .cls-3 {
        stroke: none;
      }

      .cls-3 {
        fill: #707070;
      }
    </style>
  </defs>
  <g id="back" class="cls-1" transform="translate(139 -170)">
    <path class="cls-2" d="M -130.3721923828125 300.4843139648438 C -134.8536682128906 300.4843139648438 -138.4996032714844 296.83837890625 -138.4996032714844 292.3569030761719 L -138.4996032714844 178.6275024414062 C -138.4996032714844 174.1460418701172 -134.8536682128906 170.5001068115234 -130.3721923828125 170.5001068115234 C -125.8907318115234 170.5001068115234 -122.2447967529297 174.1460418701172 -122.2447967529297 178.6275024414062 L -122.2447967529297 231.2910003662109 L -122.2447967529297 232.4981079101562 L -122.2447967529297 292.3569030761719 C -122.2447967529297 296.83837890625 -125.8907318115234 300.4843139648438 -130.3721923828125 300.4843139648438 Z M -62.00459289550781 290.74169921875 L -121.2464981079102 231.4998016357422 L -61.23801422119141 171.4913177490234 L -62.00459289550781 290.74169921875 Z"/>
    <path class="cls-3" d="M -130.3722076416016 299.9843139648438 C -126.1664428710938 299.9843139648438 -122.7448043823242 296.5626831054688 -122.7448043823242 292.3569030761719 L -122.7448043823242 233.7052154541016 L -122.7448043823242 231.2910003662109 L -122.7448043823242 178.6275024414062 C -122.7448043823242 174.4217376708984 -126.1664428710938 171.0001068115234 -130.3722076416016 171.0001068115234 C -134.5779724121094 171.0001068115234 -137.9996032714844 174.4217376708984 -137.9996032714844 178.6275024414062 L -137.9996032714844 292.3569030761719 C -137.9996032714844 296.5626831054688 -134.5779724121094 299.9843139648438 -130.3722076416016 299.9843139648438 M -62.49690246582031 289.5422973632812 L -61.745849609375 172.7062683105469 L -120.5393905639648 231.4998016357422 L -62.49690246582031 289.5422973632812 M -130.3722076416016 300.9843139648438 C -135.1368103027344 300.9843139648438 -138.9996032714844 297.1215209960938 -138.9996032714844 292.3569030761719 L -138.9996032714844 178.6275024414062 C -138.9996032714844 173.8629150390625 -135.1368103027344 170.0001068115234 -130.3722076416016 170.0001068115234 C -125.6076049804688 170.0001068115234 -121.7448043823242 173.8629150390625 -121.7448043823242 178.6275024414062 L -121.7448043823242 231.2910003662109 L -60.73020935058594 170.2763977050781 L -61.51229858398438 291.9411010742188 L -121.7448043823242 231.7086029052734 L -121.7448043823242 292.3569030761719 C -121.7448043823242 297.1215209960938 -125.6076049804688 300.9843139648438 -130.3722076416016 300.9843139648438 Z"/>
  </g>
</svg>
