<svg xmlns="http://www.w3.org/2000/svg" viewBox="0 0 247.195 247.195">
  <defs>
    <style>
      .cls-1 {
        fill: #020202;
        stroke: #707070;
      }

      .cls-2 {
        fill: #fff;
        stroke: #fff;
      }

      .cls-3 {
        stroke: none;
      }

      .cls-4 {
        fill: none;
      }
    </style>
  </defs>
  <g id="_10" data-name="10" transform="translate(-525)" Class="musicnote">
    <g id="组_1" data-name="组 1" transform="translate(-312 -386)">
      <g id="black" class="cls-1" transform="translate(837 386)">
        <circle class="cls-3" cx="123.598" cy="123.598" r="123.598"/>
        <circle class="cls-4" cx="123.598" cy="123.598" r="123.098"/>
      </g>
      <path id="note" class="cls-2" d="M10.023,126.446a15.491,15.491,0,0,1-5.078-2.539,12.924,12.924,0,0,1-3.5-4.006,11.339,11.339,0,0,1-1.43-5.057A11.674,11.674,0,0,1,1,109.63a13.777,13.777,0,0,1,3.146-4.437,16.411,16.411,0,0,1,4.835-3.181,18.077,18.077,0,0,1,6.038-1.445A17.179,17.179,0,0,1,24,102.358l.263.136-.015-.352-3.432-80.89.586-.038-.033-.58L100.593,0l.377,8.247.085,0,.138,4.885.453,9.9-.172.04,1.9,67.32h-.006l.011.226c0,.065.005.129.007.194a10.4,10.4,0,0,1-.955,4.645,12.213,12.213,0,0,1-2.873,3.911,14.557,14.557,0,0,1-4.372,2.757,16.12,16.12,0,0,1-5.429,1.178,15.87,15.87,0,0,1-5.482-.708,14,14,0,0,1-4.517-2.373,11.7,11.7,0,0,1-3.087-3.654,10.2,10.2,0,0,1-1.215-4.552,10.4,10.4,0,0,1,.955-4.645,12.2,12.2,0,0,1,2.873-3.911A14.556,14.556,0,0,1,83.661,80.7a16.119,16.119,0,0,1,5.428-1.178A15.461,15.461,0,0,1,97.108,81.3l.261.141-.01-.352L95.756,24.4,28.078,40.131l3.066,72.254h-.006l.014.226c0,.072.008.143.011.216a11.673,11.673,0,0,1-.994,5.214,13.777,13.777,0,0,1-3.146,4.437,16.408,16.408,0,0,1-4.835,3.181,18.064,18.064,0,0,1-6.037,1.445q-.605.039-1.205.039A17.461,17.461,0,0,1,10.023,126.446Z" transform="translate(901.724 446.211)"/>
    </g>
  </g>
</svg>
