<svg xmlns="http://www.w3.org/2000/svg" viewBox="0 0 178.82 228.969" class="doublemusic">
  <defs>
    <style>
      .cls-1 {
        stroke: #707070;
      }
    </style>
  </defs>
  <path id="doublemusicnote" class="cls-1 doublemusicnote" d="M-12.1,428.868a26.254,26.254,0,0,1-8.733-4.551,22.919,22.919,0,0,1-6.027-7.177,20.958,20.958,0,0,1-2.459-9.061,21.7,21.7,0,0,1,1.709-9.343,24.729,24.729,0,0,1,5.412-7.95,28.148,28.148,0,0,1,8.315-5.7A30.066,30.066,0,0,1-3.5,382.5a28.534,28.534,0,0,1,15.435,3.209l.452.243-.025-.63-5.9-144.944,1.009-.068-.057-1.04,136.255-36.974.649,14.778.147-.007.238,8.764.778,17.725-.3.072,3.273,120.629h-.011l.018.4c.005.117.01.23.013.346a19.319,19.319,0,0,1-1.643,8.324,21.859,21.859,0,0,1-4.942,7.008,24.919,24.919,0,0,1-7.519,4.939,26.752,26.752,0,0,1-9.336,2.111,26.273,26.273,0,0,1-9.428-1.267,23.793,23.793,0,0,1-7.768-4.253,20.776,20.776,0,0,1-5.309-6.548,18.893,18.893,0,0,1-2.091-8.156,19.318,19.318,0,0,1,1.643-8.324,21.849,21.849,0,0,1,4.942-7.008,24.891,24.891,0,0,1,7.519-4.939,26.772,26.772,0,0,1,9.336-2.111,25.722,25.722,0,0,1,13.792,3.187l.448.253-.017-.63-2.756-101.585L18.948,274.2l5.273,129.468H24.21l.024.4c.007.13.014.256.019.387a21.684,21.684,0,0,1-1.71,9.342,24.711,24.711,0,0,1-5.411,7.95,28.152,28.152,0,0,1-8.316,5.7,30.016,30.016,0,0,1-10.383,2.588q-1.041.07-2.073.07A28.931,28.931,0,0,1-12.1,428.868Z" transform="translate(29.841 -201.647)"/>
</svg>
