<svg xmlns="http://www.w3.org/2000/svg" viewBox="0 0 127.173 111.912" class="headset">
  <defs>
    <style>
      .cls-1, .cls-5 {
        fill: none;
      }

      .cls-1 {
        stroke: #000;
        stroke-width: 7px;
      }

      .cls-2 {
        fill: #fff;
        stroke: #fff;
      }

      .cls-3 {
        fill: #030303;
      }

      .cls-4, .cls-6 {
        stroke: none;
      }
    </style>
  </defs>
  <g id="headset" transform="translate(-149 -235)">
    <g id="组_5" data-name="组 5" transform="translate(149 235)">
      <g id="椭圆_5" data-name="椭圆 5" class="cls-1" transform="translate(15.261)">
        <ellipse class="cls-4" cx="47.236" cy="50.869" rx="47.236" ry="50.869"/>
        <ellipse class="cls-5" cx="47.236" cy="50.869" rx="43.736" ry="47.369"/>
      </g>
      <g id="矩形_5" data-name="矩形 5" class="cls-2" transform="translate(0 50.869)">
        <rect class="cls-4" width="127.173" height="61.043"/>
        <rect class="cls-5" x="0.5" y="0.5" width="126.173" height="60.043"/>
      </g>
    </g>
    <g id="联合_1" data-name="联合 1" class="cls-3" transform="translate(151.907 279.329)">
      <path class="cls-4" d="M 14.42250061035156 42.13209915161133 C 10.08049011230469 42.13209915161133 6.548000335693359 38.599609375 6.548000335693359 34.25759887695312 L 6.548000335693359 32.54603958129883 L 6.548000335693359 31.86495018005371 L 5.898190498352051 32.06900787353516 C 5.496540546417236 32.19514083862305 5.077290534973145 32.25909805297852 4.652100563049316 32.25909805297852 C 2.36262035369873 32.25909805297852 0.5000004172325134 30.3964786529541 0.5000004172325134 28.10700035095215 L 0.5000004172325134 13.62779998779297 C 0.5000004172325134 11.33831977844238 2.36262035369873 9.475699424743652 4.652100563049316 9.475699424743652 C 5.077310562133789 9.475699424743652 5.496560573577881 9.539649963378906 5.898190498352051 9.665779113769531 L 6.548000335693359 9.869839668273926 L 6.548000335693359 9.188749313354492 L 6.548000335693359 8.374499320983887 C 6.548000335693359 4.032489776611328 10.08049011230469 0.4999995827674866 14.42250061035156 0.4999995827674866 C 18.76451110839844 0.4999995827674866 22.29700088500977 4.032489776611328 22.29700088500977 8.374499320983887 L 22.29700088500977 34.25759887695312 C 22.29700088500977 38.599609375 18.76451110839844 42.13209915161133 14.42250061035156 42.13209915161133 Z"/>
      <path class="cls-6" d="M 14.42250061035156 41.63209915161133 C 18.48880958557129 41.63209915161133 21.79700088500977 38.32390975952148 21.79700088500977 34.25759887695312 L 21.79700088500977 8.374499320983887 C 21.79700088500977 4.308189392089844 18.48880958557129 0.9999995827674866 14.42250061035156 0.9999995827674866 C 10.35619068145752 0.9999995827674866 7.048000335693359 4.308189392089844 7.048000335693359 8.374499320983887 L 7.048000335693359 9.188749313354492 L 7.048000335693359 10.55093955993652 L 5.748390674591064 10.14280986785889 C 5.395290374755859 10.03191947937012 5.026440620422363 9.975699424743652 4.652100563049316 9.975699424743652 C 2.638330459594727 9.975699424743652 1.000000476837158 11.61402988433838 1.000000476837158 13.62779998779297 L 1.000000476837158 28.10700035095215 C 1.000000476837158 30.12076950073242 2.638330459594727 31.75909996032715 4.652100563049316 31.75909996032715 C 5.026420593261719 31.75909996032715 5.395270347595215 31.7028694152832 5.748390674591064 31.59197998046875 L 7.048000335693359 31.1838493347168 L 7.048000335693359 32.54603958129883 L 7.048000335693359 34.25759887695312 C 7.048000335693359 38.32390975952148 10.35619068145752 41.63209915161133 14.42250061035156 41.63209915161133 M 14.42250061035156 42.63209915161133 C 9.79740047454834 42.63209915161133 6.048000335693359 38.88269805908203 6.048000335693359 34.25759887695312 L 6.048000335693359 32.54603958129883 C 5.607320308685303 32.68442916870117 5.138430595397949 32.75909805297852 4.652100563049316 32.75909805297852 C 2.082600355148315 32.75909805297852 4.425048700795742e-07 30.67650032043457 4.425048700795742e-07 28.10700035095215 L 4.425048700795742e-07 13.62779998779297 C 4.425048700795742e-07 11.05830001831055 2.082600355148315 8.975699424743652 4.652100563049316 8.975699424743652 C 5.138430595397949 8.975699424743652 5.607320308685303 9.050359725952148 6.048000335693359 9.188749313354492 L 6.048000335693359 8.374499320983887 C 6.048000335693359 3.749399662017822 9.79740047454834 -4.241943258875835e-07 14.42250061035156 -4.241943258875835e-07 C 19.04759979248047 -4.241943258875835e-07 22.79700088500977 3.749399662017822 22.79700088500977 8.374499320983887 L 22.79700088500977 34.25759887695312 C 22.79700088500977 38.88269805908203 19.04759979248047 42.63209915161133 14.42250061035156 42.63209915161133 Z"/>
    </g>
    <g id="联合_2" data-name="联合 2" class="cls-3" transform="translate(270.628 321.961) rotate(180)">
      <path class="cls-4" d="M 14.42250061035156 42.13209915161133 C 10.08049011230469 42.13209915161133 6.548000335693359 38.599609375 6.548000335693359 34.25759887695312 L 6.548000335693359 32.54603958129883 L 6.548000335693359 31.86495018005371 L 5.898190498352051 32.06900787353516 C 5.496540546417236 32.19514083862305 5.077290534973145 32.25909805297852 4.652100563049316 32.25909805297852 C 2.36262035369873 32.25909805297852 0.5000004172325134 30.3964786529541 0.5000004172325134 28.10700035095215 L 0.5000004172325134 13.62779998779297 C 0.5000004172325134 11.33831977844238 2.36262035369873 9.475699424743652 4.652100563049316 9.475699424743652 C 5.077310562133789 9.475699424743652 5.496560573577881 9.539649963378906 5.898190498352051 9.665779113769531 L 6.548000335693359 9.869839668273926 L 6.548000335693359 9.188749313354492 L 6.548000335693359 8.374499320983887 C 6.548000335693359 4.032489776611328 10.08049011230469 0.4999995827674866 14.42250061035156 0.4999995827674866 C 18.76451110839844 0.4999995827674866 22.29700088500977 4.032489776611328 22.29700088500977 8.374499320983887 L 22.29700088500977 34.25759887695312 C 22.29700088500977 38.599609375 18.76451110839844 42.13209915161133 14.42250061035156 42.13209915161133 Z"/>
      <path class="cls-6" d="M 14.42250061035156 41.63209915161133 C 18.48880958557129 41.63209915161133 21.79700088500977 38.32390975952148 21.79700088500977 34.25759887695312 L 21.79700088500977 8.374499320983887 C 21.79700088500977 4.308189392089844 18.48880958557129 0.9999995827674866 14.42250061035156 0.9999995827674866 C 10.35619068145752 0.9999995827674866 7.048000335693359 4.308189392089844 7.048000335693359 8.374499320983887 L 7.048000335693359 9.188749313354492 L 7.048000335693359 10.55093955993652 L 5.748390674591064 10.14280986785889 C 5.395290374755859 10.03191947937012 5.026440620422363 9.975699424743652 4.652100563049316 9.975699424743652 C 2.638330459594727 9.975699424743652 1.000000476837158 11.61402988433838 1.000000476837158 13.62779998779297 L 1.000000476837158 28.10700035095215 C 1.000000476837158 30.12076950073242 2.638330459594727 31.75909996032715 4.652100563049316 31.75909996032715 C 5.026420593261719 31.75909996032715 5.395270347595215 31.7028694152832 5.748390674591064 31.59197998046875 L 7.048000335693359 31.1838493347168 L 7.048000335693359 32.54603958129883 L 7.048000335693359 34.25759887695312 C 7.048000335693359 38.32390975952148 10.35619068145752 41.63209915161133 14.42250061035156 41.63209915161133 M 14.42250061035156 42.63209915161133 C 9.79740047454834 42.63209915161133 6.048000335693359 38.88269805908203 6.048000335693359 34.25759887695312 L 6.048000335693359 32.54603958129883 C 5.607320308685303 32.68442916870117 5.138430595397949 32.75909805297852 4.652100563049316 32.75909805297852 C 2.082600355148315 32.75909805297852 4.425048700795742e-07 30.67650032043457 4.425048700795742e-07 28.10700035095215 L 4.425048700795742e-07 13.62779998779297 C 4.425048700795742e-07 11.05830001831055 2.082600355148315 8.975699424743652 4.652100563049316 8.975699424743652 C 5.138430595397949 8.975699424743652 5.607320308685303 9.050359725952148 6.048000335693359 9.188749313354492 L 6.048000335693359 8.374499320983887 C 6.048000335693359 3.749399662017822 9.79740047454834 -4.241943258875835e-07 14.42250061035156 -4.241943258875835e-07 C 19.04759979248047 -4.241943258875835e-07 22.79700088500977 3.749399662017822 22.79700088500977 8.374499320983887 L 22.79700088500977 34.25759887695312 C 22.79700088500977 38.88269805908203 19.04759979248047 42.63209915161133 14.42250061035156 42.63209915161133 Z"/>
    </g>
  </g>
</svg>
