<svg xmlns="http://www.w3.org/2000/svg" viewBox="0 0 78.27 130.984" class="backbutton">
  <defs>
    <style>
      .cls-1 {
        fill: #030303;
      }

      .cls-2, .cls-3 {
        stroke: none;
      }

      .cls-3 {
        fill: #707070;
      }
    </style>
  </defs>
  <g id="next" class="cls-1 next" transform="translate(78.558 -170)">
    <path class="cls-2" d="M -8.916302680969238 300.4843139648438 C -13.39776992797852 300.4843139648438 -17.04370307922363 296.83837890625 -17.04370307922363 292.3569030761719 L -17.04370307922363 240.4828948974609 L -17.04370307922363 239.2758026123047 L -17.04370307922363 178.6275024414062 C -17.04370307922363 174.1460418701172 -13.39776992797852 170.5001068115234 -8.916302680969238 170.5001068115234 C -4.434336185455322 170.5001068115234 -0.7880029082298279 174.1460418701172 -0.7880029082298279 178.6275024414062 L -0.7880029082298279 292.3569030761719 C -0.7880029082298279 296.83837890625 -4.434336185455322 300.4843139648438 -8.916302680969238 300.4843139648438 Z M -78.05049133300781 299.4931030273438 L -77.28391265869141 180.2426910400391 L -18.0420036315918 239.4846038818359 L -78.05049133300781 299.4931030273438 Z"/>
    <path class="cls-3" d="M -8.916297912597656 299.9843139648438 C -4.710025787353516 299.9843139648438 -1.287989258766174 296.5626831054688 -1.287989258766174 292.3569030761719 L -1.287989258766174 178.6275024414062 C -1.287989258766174 174.4217376708984 -4.710025787353516 171.0001068115234 -8.916297912597656 171.0001068115234 C -13.12206172943115 171.0001068115234 -16.54369926452637 174.4217376708984 -16.54369926452637 178.6275024414062 L -16.54369926452637 239.2758026123047 L -16.54369926452637 241.6900177001953 L -16.54369926452637 292.3569030761719 C -16.54369926452637 296.5626831054688 -13.12206172943115 299.9843139648438 -8.916297912597656 299.9843139648438 M -77.54265594482422 298.2781677246094 L -18.74911689758301 239.4846038818359 L -76.79158782958984 181.4421234130859 L -77.54265594482422 298.2781677246094 M -8.916297912597656 300.9843139648438 C -13.68089866638184 300.9843139648438 -17.54369926452637 297.1215209960938 -17.54369926452637 292.3569030761719 L -17.54369926452637 239.6934051513672 L -78.55829620361328 300.7080078125 L -77.77619171142578 179.0433044433594 L -17.54369926452637 239.2758026123047 L -17.54369926452637 178.6275024414062 C -17.54369926452637 173.8629150390625 -13.68089866638184 170.0001068115234 -8.916297912597656 170.0001068115234 C -4.150789260864258 170.0001068115234 -0.2879892885684967 173.8629150390625 -0.2879892885684967 178.6275024414062 L -0.2879892885684967 292.3569030761719 C -0.2879892885684967 297.1215209960938 -4.150789260864258 300.9843139648438 -8.916297912597656 300.9843139648438 Z"/>
  </g>
</svg>
